<svg width="30" height="28" viewBox="0 0 30 28" fill="none" xmlns="http://www.w3.org/2000/svg">
<g clip-path="url(#clip0_1_2)">
<path fill-rule="evenodd" clip-rule="evenodd" d="M14.9553 0C6.68541 0 0 6.41667 0 14.355C0 20.7005 4.28357 26.0718 10.226 27.9729C10.969 28.1158 11.2411 27.664 11.2411 27.284C11.2411 26.9512 11.2166 25.8105 11.2166 24.6219C7.05643 25.4777 6.1901 22.9107 6.1901 22.9107C5.52153 21.247 4.53092 20.8195 4.53092 20.8195C3.16929 19.9401 4.6301 19.9401 4.6301 19.9401C6.14051 20.0352 6.93306 21.4136 6.93306 21.4136C8.2699 23.5999 10.4241 22.9822 11.2907 22.6018C11.4144 21.6749 11.8108 21.0333 12.2317 20.6768C8.91367 20.344 5.42265 19.1083 5.42265 13.5943C5.42265 12.0257 6.01653 10.7424 6.95755 9.74429C6.80908 9.38788 6.28898 7.91408 7.10633 5.94154C7.10633 5.94154 8.36908 5.56121 11.2163 7.41504C12.4353 7.10082 13.6925 6.94097 14.9553 6.93963C16.2181 6.93963 17.5053 7.10617 18.694 7.41504C21.5415 5.56121 22.8043 5.94154 22.8043 5.94154C23.6216 7.91408 23.1012 9.38788 22.9528 9.74429C23.9186 10.7424 24.488 12.0257 24.488 13.5943C24.488 19.1083 20.9969 20.3201 17.6541 20.6768C18.199 21.1283 18.6692 21.9838 18.6692 23.3386C18.6692 25.2636 18.6447 26.8085 18.6447 27.2837C18.6447 27.664 18.9171 28.1158 19.6598 27.9732C25.6022 26.0715 29.8858 20.7005 29.8858 14.355C29.9103 6.41667 23.2004 0 14.9553 0Z" fill="#24292F"/>
</g>
<defs>
<clipPath id="clip0_1_2">
<rect width="30" height="28" fill="white"/>
</clipPath>
</defs>
</svg>
